<svg width="169" height="31" viewBox="0 0 169 31" fill="none" xmlns="http://www.w3.org/2000/svg">
<g clip-path="url(#clip0_2_50)">
<path d="M121.9 20.4805V20.7676C121.9 21.8249 122.042 22.8138 122.324 23.7344C122.607 24.6458 123.003 25.4388 123.514 26.1133C124.024 26.7878 124.639 27.3164 125.359 27.6992C126.089 28.082 126.9 28.2734 127.793 28.2734C128.704 28.2734 129.502 28.1185 130.186 27.8086C130.869 27.4987 131.457 27.043 131.949 26.4414L132.059 28H134.383V7H131.854V14.6699C131.37 14.1048 130.796 13.6764 130.131 13.3848C129.475 13.084 128.704 12.9336 127.82 12.9336C126.918 12.9336 126.102 13.1204 125.373 13.4941C124.644 13.8678 124.024 14.3874 123.514 15.0527C122.994 15.7181 122.593 16.5156 122.311 17.4453C122.037 18.3659 121.9 19.3776 121.9 20.4805ZM124.43 20.7676V20.4805C124.43 19.7604 124.507 19.0768 124.662 18.4297C124.817 17.7734 125.059 17.1947 125.387 16.6934C125.706 16.2012 126.116 15.8092 126.617 15.5176C127.128 15.2259 127.738 15.0801 128.449 15.0801C129.279 15.0801 129.971 15.276 130.527 15.668C131.083 16.0508 131.525 16.543 131.854 17.1445V24.0078C131.525 24.6549 131.083 25.1699 130.527 25.5527C129.971 25.9355 129.27 26.127 128.422 26.127C127.72 26.127 127.118 25.9857 126.617 25.7031C126.116 25.4115 125.706 25.0195 125.387 24.5273C125.059 24.0352 124.817 23.4655 124.662 22.8184C124.507 22.1712 124.43 21.4876 124.43 20.7676ZM144.05 28.2734C145.491 28.2734 146.698 27.9863 147.674 27.4121C148.658 26.8288 149.396 26.1634 149.888 25.416L148.343 24.2129C147.879 24.8145 147.295 25.2975 146.593 25.6621C145.892 26.0267 145.09 26.209 144.187 26.209C143.504 26.209 142.879 26.0814 142.314 25.8262C141.749 25.571 141.266 25.2201 140.865 24.7734C140.473 24.3542 140.163 23.8711 139.935 23.3242C139.716 22.7773 139.575 22.1439 139.511 21.4238V21.3281H150.08V20.1934C150.08 19.1634 149.948 18.2064 149.683 17.3223C149.428 16.4382 149.036 15.668 148.507 15.0117C147.979 14.3646 147.313 13.8587 146.511 13.4941C145.718 13.1204 144.789 12.9336 143.722 12.9336C142.875 12.9336 142.045 13.1068 141.234 13.4531C140.432 13.7995 139.716 14.2962 139.088 14.9434C138.45 15.5996 137.939 16.4017 137.556 17.3496C137.174 18.2884 136.982 19.3548 136.982 20.5488V21.123C136.982 22.153 137.155 23.1055 137.502 23.9805C137.848 24.8555 138.331 25.612 138.951 26.25C139.571 26.888 140.313 27.3848 141.179 27.7402C142.054 28.0957 143.011 28.2734 144.05 28.2734ZM143.722 15.0117C144.369 15.0117 144.925 15.1302 145.39 15.3672C145.864 15.6042 146.256 15.9141 146.566 16.2969C146.876 16.6797 147.118 17.1354 147.291 17.6641C147.464 18.1836 147.55 18.6712 147.55 19.127V19.25H139.593C139.694 18.5664 139.867 17.9648 140.113 17.4453C140.368 16.9167 140.678 16.4701 141.043 16.1055C141.407 15.75 141.817 15.4811 142.273 15.2988C142.729 15.1074 143.212 15.0117 143.722 15.0117ZM157.697 28H159.624L165.654 13.207H163.07L158.927 24.3633L158.681 25.2793L158.449 24.3633L154.21 13.207H151.613L157.697 28Z" fill="#818CF8"/>
<path d="M1.8457 16.998L14.998 23.7246V19.5137L7.02734 15.6992V15.5078L14.998 11.6797V7.35938L1.8457 14.3457V16.998ZM46.8765 14.3457L33.7241 7.35938V11.6797L41.6948 15.5078V15.6992L33.7241 19.5137V23.7246L46.8765 16.998V14.3457Z" fill="#2563EB"/>
<path d="M23.0076 27.3066L29.7615 3.35352H25.783L19.0427 27.3066H23.0076Z" fill="#818CF8"/>
<path d="M70.0557 16.1621V12.043H58.96V5.2334H71.874V0.984375H53.7275V28H71.9297V23.7881H58.96V16.1621H70.0557ZM76.0258 28H85.8784C87.3627 28 88.6987 27.833 89.8862 27.499C91.0737 27.165 92.0818 26.6641 92.9106 25.9961C93.7394 25.3281 94.3764 24.4993 94.8217 23.5098C95.267 22.5202 95.4897 21.376 95.4897 20.0771C95.4897 19.3968 95.3969 18.7412 95.2114 18.1104C95.0382 17.4671 94.7661 16.8734 94.395 16.3291C94.0362 15.8219 93.5909 15.3766 93.059 14.9932C92.5395 14.6097 91.8344 14.2943 90.9438 14.0469V14.0283C91.4015 13.8551 91.8159 13.6449 92.187 13.3975C92.5704 13.1501 92.9106 12.8779 93.2075 12.5811C93.7517 12.0368 94.1599 11.4059 94.4321 10.6885C94.7166 9.95866 94.865 9.18555 94.8774 8.36914C94.8774 7.10742 94.6424 6.0127 94.1723 5.08496C93.7146 4.15723 93.059 3.3903 92.2055 2.78418C91.352 2.17806 90.3191 1.72656 89.1069 1.42969C87.907 1.13281 86.5711 0.984375 85.0991 0.984375H76.0258V28ZM81.2582 16.0879H86.1196C86.8494 16.1003 87.4802 16.1992 88.0121 16.3848C88.544 16.5703 88.977 16.8363 89.311 17.1826C89.645 17.5166 89.8862 17.9248 90.0346 18.4072C90.1954 18.8896 90.2758 19.4339 90.2758 20.04C90.2758 20.6214 90.1707 21.1471 89.9604 21.6172C89.7625 22.0872 89.4656 22.4893 89.0698 22.8232C88.711 23.1201 88.2595 23.3551 87.7153 23.5283C87.1834 23.7015 86.5773 23.7881 85.8969 23.7881H81.2582V16.0879ZM81.2582 12.3213V5.2334H85.1176C85.9588 5.24577 86.6886 5.33854 87.3071 5.51172C87.9379 5.6849 88.4389 5.96322 88.81 6.34668C89.0945 6.61882 89.3048 6.95898 89.4409 7.36719C89.5893 7.77539 89.6635 8.25163 89.6635 8.7959C89.6635 9.31543 89.5769 9.7793 89.4037 10.1875C89.2429 10.5957 89.0079 10.9421 88.6987 11.2266C88.3276 11.5853 87.839 11.8574 87.2329 12.043C86.6267 12.2161 85.9278 12.3089 85.1362 12.3213H81.2582ZM111.98 22.3594L113.557 28H119.05L110.366 0.984375H105.635L96.7841 28H102.276L103.872 22.3594H111.98ZM105.152 17.9248L107.991 7.97949L110.756 17.9248H105.152Z" fill="#2563EB"/>
</g>
<defs>
<clipPath id="clip0_2_50">
<rect width="169" height="31" fill="white"/>
</clipPath>
</defs>
</svg>
